<?xml version="1.0" encoding="utf-8"?>
<svg id="ic_fluent_search_square_16_regular" width="16" height="16" style="width:16px;height:16px;" version="1.1"
     xmlns="http://www.w3.org/2000/svg" viewBox="0 0 500 500" enable-background="new 0 0 500 500" xml:space="preserve"><path fill="#000000" d="M105.05 0 q-43.88 0 -74.47 30.59 q-30.59 30.59 -30.59 74.47 l0 289.9 q1.33 43.88 31.25 74.46 q29.92 30.59 73.8 30.59 l289.9 0 q43.88 -1.33 74.46 -31.25 q30.59 -29.92 30.59 -73.8 l0 -289.9 q0 -43.88 -30.59 -74.47 q-30.58 -30.59 -74.46 -30.59 l-289.9 0 ZM42.55 105.05 q0 -26.59 17.95 -44.55 q17.95 -17.95 44.55 -17.95 l289.9 0 q26.59 0 44.55 17.95 q17.95 17.95 17.95 44.55 l0 289.9 q0 26.59 -17.95 44.55 q-17.95 17.95 -44.55 17.95 l-289.9 0 q-26.59 0 -44.55 -17.95 q-17.95 -17.95 -17.95 -44.55 l0 -289.9 ZM125 208.78 q0 -34.58 24.6 -59.18 q24.6 -24.6 59.17 -24.6 q34.58 0 58.51 24.6 q23.94 24.6 23.94 59.17 q0 34.58 -23.94 58.51 q-23.94 23.94 -58.51 23.94 q-34.57 0 -59.17 -23.94 q-24.6 -23.94 -24.6 -58.51 ZM208.78 83.78 q-41.23 0 -73.81 23.94 q-32.58 23.94 -45.21 61.84 q-12.63 37.9 0 76.46 q12.63 38.56 45.21 62.5 q32.58 23.94 72.47 24.61 q39.9 0.66 73.14 -23.28 l99.73 99.73 q6.65 6.65 15.3 6.65 q8.64 0 14.63 -5.98 q5.98 -5.98 5.98 -14.63 q0 -8.64 -6.65 -15.3 l-99.73 -99.73 q19.95 -27.93 22.61 -63.17 q2.66 -35.24 -13.3 -66.49 q-15.96 -31.25 -45.88 -49.2 q-29.92 -17.95 -64.49 -17.95 Z"/></svg>