<?xml version="1.0" encoding="utf-8"?>
<svg id="ic_fluent_code_block_16_regular" width="16" height="16" style="width:16px;height:16px;" version="1.1"
     xmlns="http://www.w3.org/2000/svg" viewBox="0 0 500 500" enable-background="new 0 0 500 500" xml:space="preserve"><path fill="#ffffff" d="M105.05 0 q-43.88 0 -74.47 30.59 q-30.59 30.59 -30.59 74.47 l0 289.9 q1.33 43.88 31.25 74.46 q29.92 30.59 73.8 30.59 l289.9 0 q43.88 -1.33 74.46 -31.25 q30.59 -29.92 30.59 -73.8 l0 -289.9 q0 -43.88 -30.59 -74.47 q-30.58 -30.59 -74.46 -30.59 l-289.9 0 ZM42.55 105.05 q0 -26.59 17.95 -44.55 q17.95 -17.95 44.55 -17.95 l289.9 0 q26.59 0 44.55 17.95 q17.95 17.95 17.95 44.55 l0 289.9 q0 26.59 -17.95 44.55 q-17.95 17.95 -44.55 17.95 l-289.9 0 q-26.59 0 -44.55 -17.95 q-17.95 -17.95 -17.95 -44.55 l0 -289.9 ZM327.13 151.6 q-6.65 -5.32 -15.29 -5.32 q-8.65 0 -14.63 5.98 q-5.99 5.98 -5.99 14.63 q0 8.65 6.65 15.3 l67.82 67.82 l-67.82 67.82 q-6.65 6.65 -6.65 15.3 q0 8.64 5.99 14.63 q5.98 5.98 14.63 5.98 q8.64 0 15.29 -5.32 l82.44 -83.77 q6.65 -6.65 6.65 -14.63 q0 -7.98 -6.65 -14.63 l-82.44 -83.77 ZM202.13 182.18 q6.65 -6.65 6.65 -15.3 q0 -8.64 -5.98 -14.63 q-5.99 -5.98 -14.63 -5.98 q-8.65 0 -15.3 5.32 l-82.44 83.77 q-6.65 6.65 -6.65 14.63 q0 7.98 6.65 14.63 l82.44 83.77 q6.65 5.32 15.3 5.32 q8.64 0 14.63 -5.98 q5.98 -5.98 5.98 -14.63 q0 -8.64 -6.65 -15.3 l-67.82 -67.82 l67.82 -67.82 Z"/></svg>